# xmcd
#
# Track frame offsets: 
#        150
#        26262
#        52179
#        138451
#        148599
#
# Disc length: 2639 seconds
#
# Revision: 1
# Processed by: cddbd v1.5.2PL0 Copyright (c) Steve Scherf et al.
# Submitted via: ExactAudioCopy v1.0b3
#
DISCID=440a4d05
DTITLE=백인영, 서라미, 원건희 - 아침의 탄생 (First Morning)
DYEAR=2002
DGENRE=New Age
TTITLE0=아침의 탄생 - 1. 어둠 (Darkness)
TTITLE1=아침의 탄생 - 2.빛 (Light)
TTITLE2=아침의 탄생 - 3. 아침 (Bright Morning)
TTITLE3=침묵 (Silence)
TTITLE4=나다 (Nada): Dawn At Buddhist Temple
EXTD=YEAR: 2002
EXTT0=
EXTT1=
EXTT2=
EXTT3=
EXTT4=
PLAYORDER=
